# xmcd
#
# Track frame offsets: 
#        150
#        19585
#        34630
#        53885
#        70312
#        84807
#        102820
#        123866
#        140198
#        162033
#        174697
#        191196
#        207951
#        234066
#        259114
#        282385
#
# Disc length: 4030 seconds
#
# Revision: 2
# Processed by: cddbd v1.5.2PL0 Copyright (c) Steve Scherf et al.
# Submitted via: ExactAudioCopy v1.0b3
#
DISCID=d80fbc10
DTITLE=Various Artist - Русский Хип-Хоп №1
DYEAR=2003
DGENRE=Rap
TTITLE0=NTL - Хороший День
TTITLE1=B&W Family - Дымовая Завеса «Когда Хочется Плакать
TTITLE2=B&W Family. - Перемены
TTITLE3=63 Регион - Я Не Люблю
TTITLE4=Big Black Boots - Это Рэп, Ё!
TTITLE5=W. Angel - Самоубийца
TTITLE6=Банда Backfire - Навсегда
TTITLE7=Монинский Округ - Жизнь
TTITLE8=Barada - Кировский Район
TTITLE9=Этридо и Арман - На Фоне Спящего Города
TTITLE10=Без Контроля - Мёртвый Город
TTITLE11=Сага feat. Шнурок - Сторона Негативного Общества
TTITLE12=Опасные Умы - В Час Когда
TTITLE13=Позиция - Суки и Шалавы
TTITLE14=МС Кор - Пульс Жизни
TTITLE15=ВТН - Зачем
EXTD=
EXTT0=
EXTT1=
EXTT2=
EXTT3=
EXTT4=
EXTT5=
EXTT6=
EXTT7=
EXTT8=
EXTT9=
EXTT10=
EXTT11=
EXTT12=
EXTT13=
EXTT14=
EXTT15=
PLAYORDER=
